<?xml version="1.0" encoding="utf-8"?>
<!-- Generator: Adobe Illustrator 21.0.0, SVG Export Plug-In . SVG Version: 6.00 Build 0)  -->
<svg version="1.0" id="text" xmlns="http://www.w3.org/2000/svg" xmlns:xlink="http://www.w3.org/1999/xlink" x="0px" y="0px"
	 viewBox="0 0 476.1 47.6" style="enable-background:new 0 0 476.1 47.6;" xml:space="preserve">
<style type="text/css">
	.st0{fill:#8B8D8D;}
	.st1{fill:#FFFFFF;}
</style>
<path class="st0" d="M246.8,9.1l0.2,0.2v2.4l-1.6-1.2c0,0-1.3-0.9-3.2-0.9l-8.7,0l0-1.4l10.1,0C245.6,8.2,246.8,9.1,246.8,9.1z
	 M220.3,42.8c0,0,1-1.8,1-4V7.2c0-2.1-1-3.9-1-4l0-0.1l-2.2,0l0.8,1.5c0,0,1,1.8,1,4v31.6c0,2.1-1,3.9-1,4l-0.8,1.5H232l0-1.4h-12.5
	L220.3,42.8z M233.5,26.5l9.9,0.1l0-1.4l-9.9-0.1L233.5,26.5z M269.5,26.5l9.9,0.1l0-1.4l-9.9-0.1L269.5,26.5z M279.6,8.2l-10.1,0
	l0,1.4l8.7,0c2,0,3.2,0.9,3.2,0.9l1.6,1.2V9.3l-0.2-0.2C282.8,9.1,281.6,8.2,279.6,8.2z M256.4,42.8c0,0,1-1.8,1-4V7.2
	c0-2.1-1-3.9-1-4l-0.1-0.1h-2.2l0.8,1.5c0,0,1,1.8,1,4v31.6c0,2.1-1,3.9-1,4l-0.8,1.5h13.9l0-1.4h-12.5L256.4,42.8z M127,8.5
	c1.6,0,3.4,0,4.3,0c2.1,0,4,0.3,5.7,1c1.7,0.7,3.1,1.6,4.3,2.9c1.2,1.3,2.1,2.8,2.8,4.6c0.7,1.8,1,3.9,1,6.2c0,5.6-1.3,9.8-3.7,12.7
	c0.4-0.3,0.8-0.7,1.1-1l0,0c2.7-2.8,4-7.2,4-13c0-2.3-0.3-4.4-1-6.2c-0.7-1.8-1.6-3.3-2.8-4.6c-1.2-1.2-2.6-2.2-4.3-2.9
	c-1.7-0.7-3.6-1-5.7-1c-1.1,0-4.1,0-5.7,0V8.5z M133.9,45.6c3.2,0,6.2-0.5,9-1.5c2.8-1,5.3-2.5,7.5-4.5c0.5-0.4,0.9-0.9,1.3-1.3
	c-2.1,1.9-4.6,3.4-7.4,4.4c-2.8,1-5.8,1.5-9,1.5l-22.2,0l0.9-1.5c0,0,1-1.8,1-3.9l0-31.4c0,0,0-0.1,0-0.1c0-2.2-1-4-1-4l0-0.1
	l-2.2,0l0.8,1.5c0,0,1,1.9,1,4c0,0.1,0,0.1,0,0.1l0,31.4c0,2.1-1,3.9-1,3.9l-0.9,1.5L133.9,45.6z M189.6,45c-3.2,0-6.2-0.4-9-1.2
	c-2.2-0.6-5.4-1.8-7.9-3.9c-2.1-1.8-3.8-4.1-5.1-6.9c-1.2-2.8-1.9-6.1-1.9-9.9c0-3,0.6-5.9,1.7-8.6c1-2.3,2.4-4.4,4.1-6.3
	c-0.2,0.2-0.5,0.4-0.7,0.6c-2,2-3.7,4.4-4.8,7c-1.1,2.7-1.7,5.5-1.7,8.6c0,3.8,0.6,7.2,1.9,9.9c1.2,2.8,2.9,5.1,5.1,6.9
	c2.5,2.1,5.7,3.3,7.9,3.9c2.8,0.8,5.8,1.2,9,1.2c3.4,0,6.6-0.6,9.4-1.7c2.3-0.9,5.5-2.4,7.9-4.7c0.3-0.3,0.6-0.7,0.9-1
	c-2.3,2-5.2,3.4-7.4,4.2C196.2,44.4,193,45,189.6,45z M201.4,21.8c0-2.4-0.3-4.6-0.9-6.6c-0.6-1.9-1.4-3.5-2.4-4.8
	c-1-1.3-2.3-2.3-3.7-3c-1.4-0.7-3.1-1-4.8-1c-1.8,0-3.4,0.4-4.9,1.3c-1.1,0.7-2,1.5-2.9,2.5c0.5-0.4,1-0.8,1.5-1.1
	c1.4-0.9,3.1-1.3,4.9-1.3c1.7,0,3.3,0.4,4.8,1c1.4,0.7,2.7,1.7,3.7,3c1,1.3,1.9,2.9,2.4,4.8c0.6,1.9,0.9,4.1,0.9,6.6
	c0,3.1-0.4,5.8-1,8.1v0c-0.7,2.2-1.6,4.1-2.7,5.5c-0.1,0.1-0.2,0.3-0.3,0.4c0.6-0.5,1.2-1.1,1.7-1.8c1.1-1.4,2-3.3,2.7-5.5
	C201.1,27.6,201.4,24.9,201.4,21.8z M10.7,46.2l0.8-1.5c0,0,1-1.9,1-4.1l0-0.1c0-9,0-29.4,0-35.5c0-0.1,0-0.1,0-0.2
	c0-2.2-1-4.3-1-4.3l0-0.1l-2.1,0l0.7,1.5c0,0,1,2.1,1,4.3c0,0.1,0,0.1,0,0.2c0,5.8,0,24.6,0,34.2l0,1.4c0,2.2-1,4.1-1,4.1l-0.8,1.5
	l2.8,0l7.3,0l-0.7-1.4l-5.2,0L10.7,46.2z M19,21.5l0,3.6l14.1,22.4h2.4l0.8-1.4h-1.8L19,21.5z M49.6,46.1l-0.8,1.5l4.2,0l8.2,0
	l3.3,0l-0.7-1.4l-1.1,0l-8.2,0l-4.2,0l0.8-1.5c0,0,1-1.9,1-4l0-20.5l-1.4,2.4l0,19.5C50.6,44.2,49.6,46.1,49.6,46.1z M55.3,0.5h-0.6
	l-17,29.3c0.1,0.2,0.2,0.3,0.3,0.5L55.3,0.5z M89.5,26.5l9.9,0.1l0-1.4l-9.9-0.1L89.5,26.5z M76.4,42.8c0,0,1-1.8,1-4V7.4
	c0-2.1-1-4.2-1-4.2l0-0.1l-2.1,0L75,4.6c0,0,1,2,1,4.2v31.4c0,2.1-1,3.9-1,4l-0.8,1.5l29.1,0l0-1.4l-27.7,0L76.4,42.8z M99.6,8.2
	l-10.1,0l0,1.4l8.7,0c2,0,3.2,0.9,3.2,0.9l1.6,1.2V9.3l-0.2-0.2C102.9,9.1,101.6,8.2,99.6,8.2z"/>
<path class="st1" d="M150.5,6.8c-2.2-1.5-4.5-2.5-7.6-3.1c-3-0.6-6.7-0.9-10.5-0.9c-2.5,0-13.6,0-16,0c-0.3,0-0.5,0-0.5,0h-1.1
	c0,0,1.1,2,1.1,4.5c0,0,0,0.1,0,0.1v31.3c0,0,0,0.1,0,0.1c0,2.5-1.1,4.4-1.1,4.4h1.6l0,0c2.6,0,15.9,0,18.8,0c3.1,0,5.9-0.5,8.6-1.5
	c2.7-1,5.1-2.4,7.1-4.3c2.1-1.9,3.7-4.1,4.9-6.7c1.2-2.6,1.8-5.6,1.8-8.8c0-3.7-0.9-6.8-2.1-9.3C154.4,10.2,152.7,8.2,150.5,6.8z
	 M143.2,35.5c-2.8,3-6.7,4.5-11.6,4.5c-1.3,0-5.6,0-5.6,0V6.1c0,0,5.1,0,6.7,0c2.2,0,4.3,0.4,6.1,1.1c1.8,0.7,3.4,1.8,4.7,3.1
	c1.3,1.4,2.3,3,3,4.9c0.7,1.9,1.1,4.1,1.1,6.5C147.5,27.9,146.1,32.5,143.2,35.5z M206,7.2c-2-1.7-4.8-3-7.5-3.9
	c-2.7-0.9-5.6-1.3-8.8-1.3c-3.4,0-6.5,0.5-9.3,1.6c-2.8,1.1-5.5,2.6-7.5,4.5c-2,1.9-3.5,4.2-4.6,6.7c-1.1,2.5-1.6,5.3-1.6,8.2
	c0,3.7,0.6,6.9,1.8,9.5c1.2,2.6,2.8,4.8,4.8,6.5c2,1.7,4.8,2.9,7.5,3.7c2.7,0.8,5.6,1.1,8.7,1.1c3.3,0,6.3-0.5,9.1-1.6
	c2.7-1.1,5.5-2.5,7.5-4.4c2-1.9,3.5-4.1,4.7-6.7c1.1-2.6,1.7-5.3,1.7-8.2c0-3.5-0.6-6.6-1.7-9.3C209.6,11.1,208,8.9,206,7.2z
	 M201.3,30.2c-0.7,2.4-1.7,4.3-2.9,5.8c-1.2,1.5-2.6,2.7-4.2,3.4c-1.6,0.7-3.3,1.1-5.1,1.1c-1.6,0-3.2-0.3-4.7-0.9
	c-1.5-0.6-2.8-1.5-3.9-2.9c-1.1-1.3-2-3.1-2.7-5.2c-0.7-2.2-1-4.8-1-7.9c0-2.5,0.3-4.9,0.9-7.1c0.6-2.2,1.4-4.1,2.5-5.8
	c1.1-1.6,2.4-3,4-3.9c1.6-1,3.4-1.4,5.4-1.4c1.9,0,3.6,0.4,5.2,1.1c1.6,0.8,2.9,1.9,4.1,3.3c1.1,1.4,2,3.1,2.6,5.2
	c0.6,2,0.9,4.3,0.9,6.9C202.4,25,202.1,27.8,201.3,30.2z M63.1,5.1c0,2.7,0,26,0,35.7c0,2.4,1.1,4.4,1.1,4.4h-1.6l0,0l-9.1,0v0h-1.6
	c0,0,1.1-2.1,1.1-4.4l0-24.2L36.3,45.2h-1.3L18,18l0,22.8c0.1,2.3,1.1,4.3,1.1,4.3h-1.1v0h-4.6v0h-1.1c0,0,1.1-2.1,1.1-4.6
	c0,0,0-0.1,0-0.1c0-9.1,0-29.6,0-35.6c0-0.1,0-0.1,0-0.1c0-2.5-1.1-4.7-1.1-4.7h6.4v0.1C20.5,3.3,38,32.3,38,32.3L56.7,0.1h7.5
	C64.2,0.1,63.1,2.5,63.1,5.1C63.1,5,63.1,5,63.1,5.1z M78.9,2.8h24.6v3.9v0.5v1.1c0,0-1.4-1.1-3.8-1.1l-11.1,0l0,12.8l7.4,0
	c2.5,0,3.9-0.9,3.9-0.9V20h0v4.2l-11.3-0.1l0,14.9l11.4,0c2.4,0,3.8-1.1,3.8-1.1v1.1h0v4.3H78.9l0,0h-1.6c0,0,1.1-2,1.1-4.4V7.4
	c0-2.4-1.1-4.6-1.1-4.6h1.1H78.9z M222.8,2.8h24.6v3.9v0.5v1.1c0,0-1.4-1.1-3.8-1.1l-11.1,0l0,12.8l7.4,0c2.5,0,3.9-0.9,3.9-0.9V20
	h0v4.2l-11.3-0.1l0,19.2h-11.2c0,0,1.1-2,1.1-4.4V7.2c0-2.4-1.1-4.4-1.1-4.4h1.1H222.8z M258.9,2.8h24.6v3.9v0.5v1.1
	c0,0-1.4-1.1-3.8-1.1l-11.1,0l0,12.8l7.4,0c2.5,0,3.9-0.9,3.9-0.9V20h0v4.2l-11.3-0.1l0,19.2h-11.2c0,0,1.1-2,1.1-4.4V7.2
	c0-2.4-1.1-4.4-1.1-4.4h1.1H258.9z"/>
<path class="st1" d="M334.8,38.1c-3.3,4.3-7.9,7-14.6,7c-12.1,0-20.7-8.9-20.7-21.1s8.8-21.1,20.7-21.1c5.8,0,10.9,2.1,13.8,5.8
	l-2.3,2.2c-2.3-2.9-6.6-5.1-11.4-5.1c-10.7,0-17.4,8.3-17.4,18.2c0,9.9,6.7,18.2,17.4,18.2c4.7,0,8.7-1.4,12.3-5.9L334.8,38.1z
	 M348.4,44.1h-3.2V4h3.2V44.1z M374.3,44.1H371V6.9h-13.5V4h30.2v2.9h-13.5V44.1z M400.1,44.1h-3.2V4h3.2V44.1z M417.2,41.2h22v2.9
	H414V4h24.4v2.9h-21.2v14.9H437v2.8h-19.9V41.2z M470.2,9.8c-2.1-2.6-5-4.1-8.8-4.1c-4.4,0-9.3,2.6-9.3,8.1c0,11.7,21.1,5.7,21.1,20
	c0,7.7-6.4,11.3-12.8,11.3c-5.2,0-9.3-2.1-12.1-5.8l2.3-2c2.8,3.3,5.9,4.9,9.8,4.9c4.7,0,9.5-2.9,9.5-8.3c0-11.8-21-6-21-20.2
	c0-7.4,6.6-10.9,12.7-10.9c5.3,0,8.9,2.1,11,4.8L470.2,9.8z"/>
</svg>
